<?xml version="1.0" standalone="no"?>
<!DOCTYPE svg PUBLIC "-//W3C//DTD SVG 20010904//EN"
 "http://www.w3.org/TR/2001/REC-SVG-20010904/DTD/svg10.dtd">
<svg version="1.0" xmlns="http://www.w3.org/2000/svg"
 width="120.000000" height="25.000000" viewBox="400 430 200 160"
 preserveAspectRatio="xMidYMid meet">

<g transform="translate(0.000000,1024.000000) scale(0.100,-0.10)"
fill="#55565B" stroke="none">
<path d="M2532 5883 c-21 -18 -137 -302 -346 -843 -58 -151 -126 -326 -152
-389 -56 -140 -63 -174 -39 -201 16 -18 31 -20 126 -20 131 0 130 -1 183 138
61 159 41 144 197 143 190 -2 348 -11 389 -22 48 -12 79 -47 133 -149 25 -47
50 -85 56 -85 5 0 16 -6 23 -12 16 -17 204 -17 238 0 13 7 29 25 34 39 11 30
7 39 -201 568 -281 714 -326 821 -346 835 -16 11 -53 15 -148 15 -106 0 -130
-3 -147 -17z m167 -495 c17 -34 31 -67 31 -73 0 -7 16 -47 35 -90 20 -43 43
-104 52 -136 9 -33 20 -59 25 -59 5 0 6 -4 3 -10 -7 -12 -365 -14 -365 -2 0
34 169 444 181 437 4 -3 21 -33 38 -67z m55 -79 c3 -13 -3 -6 -13 16 -11 22
-20 47 -20 55 0 17 23 -34 33 -71z m80 -193 c15 -38 24 -71 22 -73 -4 -4 -35
72 -51 127 -14 47 3 15 29 -54z m246 -651 c0 -5 -5 -3 -10 5 -5 8 -10 20 -10
25 0 6 5 3 10 -5 5 -8 10 -19 10 -25z"/>
<path d="M3670 5875 l-25 -27 -3 -689 c-3 -808 -16 -729 122 -729 90 0 131 10
152 38 11 13 13 134 14 580 l0 562 138 -1 c86 0 130 -4 117 -9 -16 -7 -10 -9
25 -10 51 -3 54 -3 95 -14 82 -23 155 -85 178 -150 l11 -31 8 25 c4 16 6 -2 5
-47 -2 -63 -6 -77 -33 -110 -53 -67 -100 -83 -239 -83 -130 0 -155 -7 -188
-52 -28 -37 -25 -79 7 -129 15 -23 23 -38 16 -34 -31 19 26 -59 97 -132 43
-44 121 -127 173 -183 52 -57 120 -129 151 -161 l55 -57 122 1 c110 2 123 4
143 24 31 30 28 85 -7 131 -15 19 -92 104 -171 189 -79 84 -143 155 -143 157
0 2 28 17 63 33 85 40 118 71 173 160 59 94 84 168 84 249 0 232 -133 416
-359 498 -52 19 -83 21 -406 24 l-350 3 -25 -26z m800 -1330 c19 -19 32 -35
29 -35 -3 0 -20 16 -39 35 -19 19 -32 35 -29 35 3 0 20 -16 39 -35z"/>
<path d="M5661 5883 c-15 -12 -111 -241 -287 -680 -145 -364 -267 -675 -270
-690 -4 -20 1 -36 16 -56 21 -26 24 -27 125 -27 83 0 107 3 123 18 12 9 43 73
70 140 l49 124 253 -1 c182 -2 262 -6 284 -15 49 -21 95 -65 122 -118 13 -26
34 -63 45 -81 18 -28 20 -29 14 -7 -5 22 -4 23 5 7 7 -10 9 -26 5 -35 -3 -9
-3 -13 1 -10 4 4 16 1 28 -7 24 -17 189 -21 229 -6 13 5 30 24 37 42 13 30 12
39 -12 103 -64 170 -304 760 -455 1119 -61 144 -80 180 -100 188 -13 5 -78 9
-143 9 -97 0 -122 -3 -139 -17z m159 -446 c0 -4 5 -5 12 -1 7 4 8 3 4 -5 -10
-15 3 -53 15 -46 5 4 9 4 9 1 0 -2 3 -13 6 -23 5 -15 4 -16 -6 -3 -10 13 -11
12 -5 -5 21 -61 48 -125 52 -121 2 2 -3 21 -12 41 -8 21 -14 40 -12 42 9 8 98
-227 91 -238 -4 -8 -3 -10 4 -5 7 4 12 5 12 2 0 -2 3 -12 7 -22 4 -12 3 -15
-5 -10 -8 5 -10 2 -6 -8 3 -9 11 -13 17 -9 6 3 7 1 3 -5 -5 -9 -67 -12 -207
-12 -109 0 -199 2 -199 5 0 10 119 305 156 384 34 74 39 81 51 65 7 -10 13
-22 13 -27z"/>
<path d="M6821 5874 c-23 -29 -23 -22 -21 -1124 0 -343 -9 -320 136 -320 84 0
96 2 121 24 l28 24 5 417 5 417 22 -39 c13 -22 20 -43 17 -46 -3 -3 8 -31 25
-63 16 -33 30 -55 31 -51 0 5 -5 17 -10 28 -6 10 -9 19 -6 19 11 0 106 -192
100 -202 -5 -7 -2 -8 6 -3 10 6 12 4 7 -9 -4 -10 -3 -15 3 -11 11 7 33 -32 25
-45 -3 -5 0 -12 6 -16 8 -5 10 -2 5 7 -4 8 -1 5 8 -5 8 -10 13 -23 10 -28 -3
-5 -2 -7 3 -6 4 1 21 -6 36 -16 23 -16 40 -18 97 -13 38 3 77 10 87 15 9 6 51
67 93 136 201 336 204 341 211 310 4 -16 7 -201 8 -412 l1 -383 25 -24 c22
-23 32 -25 120 -25 88 0 98 2 120 25 25 24 25 25 25 218 0 106 -3 418 -7 692
-6 465 -8 500 -25 517 -15 15 -35 18 -131 18 -105 0 -115 -2 -134 -22 -12 -13
-101 -169 -198 -348 -98 -179 -179 -327 -181 -329 -8 -8 -33 35 -150 254 -168
314 -214 397 -237 423 -19 21 -29 22 -143 22 -120 0 -123 0 -143 -26z m347
-699 c-3 -3 -9 2 -12 12 -6 14 -5 15 5 6 7 -7 10 -15 7 -18z"/>
<path d="M7200 5080 c6 -11 13 -20 16 -20 2 0 0 9 -6 20 -6 11 -13 20 -16 20
-2 0 0 -9 6 -20z"/>
</g>
</svg>
